<?xml version="1.0" standalone="no"?>
<!DOCTYPE svg PUBLIC "-//W3C//DTD SVG 20010904//EN"
 "http://www.w3.org/TR/2001/REC-SVG-20010904/DTD/svg10.dtd">
<svg version="1.0" xmlns="http://www.w3.org/2000/svg"
 width="512.000000pt" height="512.000000pt" viewBox="0 0 512.000000 512.000000"
 preserveAspectRatio="xMidYMid meet">
<metadata>
Created by potrace 1.11, written by Peter Selinger 2001-2013
</metadata>
<g transform="translate(0.000000,512.000000) scale(0.100000,-0.100000)"
fill="#000000" stroke="none">
<path d="M2740 3794 c-47 -7 -111 -17 -142 -20 -32 -4 -58 -10 -58 -14 0 -4
-17 -10 -37 -13 -21 -4 -51 -10 -67 -13 -25 -6 -27 -4 -22 13 6 18 1 21 -62
26 -85 7 -301 -3 -308 -15 -3 -4 -14 -8 -25 -8 -30 0 -69 -44 -69 -79 0 -16
-4 -33 -10 -36 -5 -3 -10 -38 -10 -76 0 -65 -12 -99 -35 -99 -12 0 -113 -112
-151 -168 -21 -31 -42 -58 -46 -60 -5 -2 -8 -11 -8 -21 0 -9 -7 -26 -15 -37
-8 -10 -15 -26 -15 -36 0 -9 -3 -18 -8 -20 -4 -1 -21 -43 -37 -93 -30 -90 -30
-90 -29 -325 0 -207 3 -248 24 -340 12 -58 25 -118 27 -135 2 -16 8 -39 12
-50 13 -32 41 -151 41 -174 0 -12 4 -21 9 -21 5 0 11 -15 14 -32 4 -33 28
-115 73 -259 13 -42 24 -86 24 -98 0 -11 5 -21 10 -21 6 0 10 -11 10 -25 0
-14 9 -48 20 -77 11 -29 20 -61 20 -71 0 -34 99 -117 139 -117 11 0 21 -4 23
-8 8 -21 169 -42 318 -42 l155 0 13 -27 c7 -15 12 -66 12 -119 0 -103 4 -97
-80 -109 -56 -8 -204 -55 -208 -66 -2 -5 -10 -9 -19 -9 -14 0 -58 -22 -92 -45
-35 -24 -131 -127 -131 -140 0 -8 -4 -15 -9 -15 -14 0 -35 -91 -34 -147 1 -29
7 -68 14 -86 15 -41 8 -64 -23 -76 -22 -9 -118 -108 -164 -168 -29 -39 -74
-155 -74 -192 l0 -31 155 0 154 0 17 32 c18 35 102 118 119 118 5 0 24 -23 40
-50 17 -27 33 -50 36 -50 4 0 10 -11 13 -25 7 -28 46 -36 46 -10 0 8 -4 15 -9
15 -5 0 -13 10 -17 22 -3 12 -23 46 -43 76 -20 30 -47 71 -60 91 -13 20 -28
38 -33 39 -4 2 -8 10 -8 18 0 8 -3 14 -8 14 -4 0 -16 17 -27 38 -11 20 -26 43
-32 50 -7 7 -13 22 -13 33 0 10 -3 19 -8 19 -11 0 -33 77 -26 94 3 8 19 21 35
28 16 7 29 16 29 20 0 5 10 8 23 8 16 0 30 -14 52 -51 17 -28 40 -63 52 -78
13 -14 23 -32 23 -38 0 -7 3 -13 8 -13 4 0 16 -17 27 -37 11 -21 22 -40 25
-43 3 -3 12 -19 21 -35 25 -49 44 -80 50 -85 3 -3 14 -30 24 -60 10 -30 21
-59 25 -65 4 -5 11 -25 15 -43 l7 -32 429 0 429 0 6 25 c3 14 10 25 14 25 4 0
13 14 20 30 7 16 16 30 20 30 4 0 15 18 25 40 21 47 56 62 84 36 10 -9 21 -16
25 -16 17 0 97 -99 108 -132 l11 -38 160 0 159 0 -4 62 c-2 37 -13 82 -26 109
-12 25 -22 51 -22 57 0 7 -3 12 -8 12 -4 0 -13 13 -20 29 -27 62 -157 180
-229 210 l-31 13 1 114 c1 74 -2 117 -9 122 -6 4 -14 19 -18 34 -9 40 -106
130 -177 167 -77 39 -247 79 -377 87 l-100 7 -11 74 c-6 41 -11 100 -11 132
l0 59 44 11 c25 6 56 11 70 11 14 0 26 5 26 10 0 6 10 10 23 10 24 0 318 93
349 110 10 6 26 10 36 10 11 0 27 9 36 19 16 18 17 28 6 113 -7 51 -23 138
-36 193 -13 55 -24 110 -24 123 0 12 -4 22 -10 22 -5 0 -10 8 -10 18 0 25 -31
164 -41 184 -5 10 -9 26 -9 36 0 9 -11 62 -25 116 -14 54 -25 113 -25 132 0
18 -4 35 -8 38 -14 8 -35 257 -29 332 10 102 19 154 27 154 4 0 10 10 14 23 5
22 44 67 82 97 29 23 106 40 228 51 139 13 153 16 159 33 10 26 -21 240 -42
289 -12 27 -21 62 -21 78 0 16 -4 29 -8 29 -4 0 -14 16 -20 35 -14 37 -107
135 -129 135 -7 0 -13 3 -13 8 0 4 -21 15 -48 25 -26 11 -56 23 -67 28 -11 5
-66 18 -122 29 -122 24 -406 26 -543 4z m-790 -385 c0 -11 -16 -37 -35 -57
-19 -20 -35 -43 -35 -49 0 -7 -4 -13 -9 -13 -8 0 -27 -27 -76 -110 -11 -19
-34 -69 -50 -110 l-30 -75 0 -225 c0 -133 5 -245 12 -275 6 -27 16 -84 23
-125 6 -41 20 -113 32 -160 11 -47 23 -98 26 -115 2 -16 10 -33 16 -37 6 -4
-6 -8 -26 -8 -37 0 -37 -1 -32 -32 5 -32 17 -64 35 -100 5 -10 9 -29 9 -42 0
-14 4 -27 9 -30 15 -10 33 -150 22 -179 -16 -43 -28 -32 -35 33 -4 33 -11 60
-16 60 -6 0 -10 13 -10 29 0 17 -4 32 -9 35 -4 3 -11 29 -15 57 -4 28 -11 58
-15 67 -15 29 -31 88 -31 110 0 12 -4 22 -8 22 -7 0 -24 75 -39 175 -3 22 -9
42 -13 45 -15 10 -33 212 -33 385 0 208 11 291 53 375 4 9 11 30 15 48 3 18
10 32 14 32 3 0 12 12 19 28 28 63 73 124 146 199 65 65 86 76 86 42z m707
-1329 c3 -17 10 -33 14 -36 5 -3 9 -18 9 -35 0 -16 4 -29 9 -29 5 0 12 -24 16
-52 4 -29 11 -57 15 -63 4 -5 10 -29 14 -52 l6 -41 -40 -7 c-22 -4 -42 -11
-46 -16 -3 -5 -15 -9 -28 -9 -12 0 -27 -5 -32 -10 -6 -6 -37 -12 -70 -13 l-59
-2 -10 95 c-6 52 -14 102 -17 110 -4 8 -9 27 -12 43 -3 15 -9 37 -12 50 -4 18
0 26 21 35 14 7 34 12 45 12 10 0 21 4 25 9 3 5 30 13 60 16 31 4 58 11 61 16
11 18 25 8 31 -21z m-691 -86 c46 -6 53 -10 68 -41 9 -18 16 -40 16 -48 0 -8
4 -15 8 -15 10 0 42 -110 42 -144 0 -14 5 -28 10 -31 14 -9 12 -45 -2 -45 -18
0 -85 19 -135 37 -38 14 -42 19 -48 57 -6 39 -32 126 -61 210 l-13 38 31 -6
c18 -3 55 -9 84 -12z m225 -1191 c-34 -61 -71 -148 -71 -168 0 -19 -10 -26
-50 -41 -27 -10 -50 -22 -50 -26 0 -4 -4 -8 -10 -8 -18 0 -10 49 16 97 31 55
125 153 148 153 9 0 16 5 16 12 0 6 3 9 6 6 3 -3 1 -14 -5 -25z"/>
<path d="M2077 473 c-13 -13 -7 -53 8 -53 10 0 15 10 15 30 0 29 -9 38 -23 23z"/>
</g>
</svg>
